<svg xmlns="http://www.w3.org/2000/svg" xmlns:xlink="http://www.w3.org/1999/xlink" width="25" height="39" viewBox="0 0 25 39"><defs><path id="4729a" d="M950.5 2480.07c-2.76 0-5-2.2-5-4.88a4.95 4.95 0 0 1 5-4.88c2.76 0 5 2.19 5 4.88a4.95 4.95 0 0 1-5 4.88zm12.5-3.67c0-7.4-5.6-13.4-12.5-13.4s-12.5 6-12.5 13.4c0 .42.01.82.05 1.23H938c0 7.36 12.5 24.37 12.5 24.37s12.5-17.06 12.5-24.37h-.05c.04-.4.05-.81.05-1.23z"/></defs><g><g clip-path="url(#clip-EB2D5DFF-D75E-4066-8997-FB80EFB96A60)" transform="translate(-938 -2463)"><use fill="#f75500" xlink:href="#4729a"/></g></g></svg>