<svg xmlns="http://www.w3.org/2000/svg" xmlns:xlink="http://www.w3.org/1999/xlink" width="46" height="26" viewBox="0 0 46 26"><defs><path id="bckea" d="M864.5 99.89h2.76s.83-.1 1.25-.54c.4-.42.38-1.2.38-1.2s-.06-3.65 1.66-4.2c1.68-.52 3.85 3.54 6.15 5.1 1.74 1.19 3.06.93 3.06.93l6.14-.09s3.21-.2 1.69-2.7c-.12-.2-.89-1.85-4.57-5.23-3.85-3.55-3.33-2.97 1.3-9.1 2.83-3.73 3.96-6 3.6-6.98-.33-.93-2.4-.69-2.4-.69l-6.92.04s-.51-.06-.9.16c-.36.22-.6.74-.6.74s-1.1 2.88-2.56 5.34c-3.08 5.18-4.31 5.45-4.81 5.13-1.17-.75-.88-3.01-.88-4.62 0-5.02.77-7.11-1.5-7.66-.75-.17-1.3-.3-3.23-.31-2.46-.03-4.55 0-5.74.58-.78.38-1.4 1.23-1.02 1.28.46.06 1.5.27 2.04 1.02.71.95.69 3.1.69 3.1s.4 5.9-.96 6.64c-.93.5-2.21-.52-4.96-5.22a43.65 43.65 0 0 1-2.47-5.07s-.2-.5-.56-.76c-.45-.33-1.07-.43-1.07-.43l-6.57.04s-.99.03-1.35.45c-.32.38-.03 1.16-.03 1.16s5.15 11.93 10.98 17.94c5.34 5.51 11.4 5.15 11.4 5.15"/></defs><g><g transform="translate(-842 -74)"><use fill="#0075b0" xlink:href="#bckea"/></g></g></svg>