<svg xmlns="http://www.w3.org/2000/svg" xmlns:xlink="http://www.w3.org/1999/xlink" width="34" height="34" viewBox="0 0 34 34"><defs><path id="2zska" d="M816.75 68h-25.5a4.25 4.25 0 0 0-4.25 4.25v25.5c0 2.34 1.9 4.25 4.25 4.25h25.5c2.34 0 4.25-1.9 4.25-4.25v-25.5c0-2.34-1.9-4.25-4.25-4.25"/><path id="2zskb" d="M816 84.77h-5.33v-4.3c0-1.2.95-1.09 2.13-1.09h2.13V74h-4.26c-3.54 0-6.4 2.9-6.4 6.46v4.3H800v5.4h4.27V102h6.4V90.15h3.2l2.13-5.38"/></defs><g><g transform="translate(-787 -68)"><g><g><use fill="#0067a4" xlink:href="#2zska"/></g></g><g><use fill="#f8f6f4" xlink:href="#2zskb"/></g></g></g></svg>