<svg xmlns="http://www.w3.org/2000/svg" xmlns:xlink="http://www.w3.org/1999/xlink" width="34" height="34" viewBox="0 0 34 34"><defs><path id="miuua" d="M940 78.13v13.74c0 5.59-4.54 10.13-10.13 10.13h-13.74A10.14 10.14 0 0 1 906 91.87V78.13c0-5.59 4.54-10.13 10.13-10.13h13.74c5.59 0 10.13 4.54 10.13 10.13zm-3.42 13.74V78.13c0-3.7-3-6.71-6.7-6.71h-13.75c-3.7 0-6.71 3-6.71 6.7v13.75c0 3.7 3 6.71 6.7 6.71h13.75c3.7 0 6.71-3 6.71-6.7z"/><path id="miuuc" d="M932.16 85.44a8.73 8.73 0 0 1-17.44 0 8.73 8.73 0 0 1 17.44 0zm-3.4 0a5.33 5.33 0 1 0-10.65 0 5.33 5.33 0 0 0 10.65 0z"/><path id="miuue" d="M929.54 75.84a1.74 1.74 0 1 1 3.49 0 1.74 1.74 0 0 1-3.49 0z"/><linearGradient id="miuub" x1="923" x2="923" y1="101.9" y2="68.26" gradientUnits="userSpaceOnUse"><stop offset="0" stop-color="#e09b3c"/><stop offset=".3" stop-color="#c74c4d"/><stop offset=".6" stop-color="#c21975"/><stop offset="1" stop-color="#7024c3"/></linearGradient><linearGradient id="miuud" x1="923.44" x2="923.44" y1="102.2" y2="68.84" gradientUnits="userSpaceOnUse"><stop offset="0" stop-color="#e09b3c"/><stop offset=".3" stop-color="#c74c4d"/><stop offset=".6" stop-color="#c21975"/><stop offset="1" stop-color="#7024c3"/></linearGradient><linearGradient id="miuuf" x1="931.28" x2="931.28" y1="97.07" y2="69.21" gradientUnits="userSpaceOnUse"><stop offset="0" stop-color="#e09b3c"/><stop offset=".3" stop-color="#c74c4d"/><stop offset=".6" stop-color="#c21975"/><stop offset="1" stop-color="#7024c3"/></linearGradient></defs><g><g transform="translate(-906 -68)"><g><use fill="url(#miuub)" xlink:href="#miuua"/></g><g><use fill="url(#miuud)" xlink:href="#miuuc"/></g><g><use fill="url(#miuuf)" xlink:href="#miuue"/></g></g></g></svg>