<svg xmlns="http://www.w3.org/2000/svg" xmlns:xlink="http://www.w3.org/1999/xlink" width="31" height="47" viewBox="0 0 31 47"><defs><path id="mh8xa" d="M356 80.4c0 8.15-14.09 30.22-14.69 31.16a.97.97 0 0 1-1.62 0c-.6-.94-14.69-23.01-14.69-31.17C325 71.9 331.95 65 340.5 65S356 71.9 356 80.4zm-9.08 17.84c4.68-8.58 7.15-14.75 7.15-17.85 0-7.43-6.09-13.47-13.57-13.47a13.54 13.54 0 0 0-13.57 13.47c0 3.1 2.47 9.27 7.15 17.85 2.56 4.7 5.15 8.94 6.42 11a231.2 231.2 0 0 0 6.42-11z"/><path id="mh8xb" d="M348 79c0 3.86-3.36 7-7.5 7-4.14 0-7.5-3.14-7.5-7s3.36-7 7.5-7c4.14 0 7.5 3.14 7.5 7zm-1.97 0c0-2.81-2.48-5.1-5.53-5.1-3.05 0-5.53 2.29-5.53 5.1 0 2.81 2.48 5.1 5.53 5.1 3.05 0 5.53-2.29 5.53-5.1z"/></defs><g><g transform="translate(-325 -65)"><use fill="#f75500" xlink:href="#mh8xa"/></g><g transform="translate(-325 -65)"><use fill="#f75500" xlink:href="#mh8xb"/></g></g></svg>