<svg xmlns="http://www.w3.org/2000/svg" xmlns:xlink="http://www.w3.org/1999/xlink" width="36" height="36" viewBox="0 0 36 36"><defs><path id="29gca" d="M966 48.25A15.77 15.77 0 0 0 950.25 64c0 8.68 7.07 15.75 15.75 15.75s15.75-7.07 15.75-15.75-7.07-15.75-15.75-15.75zM984 64a18 18 0 1 1-36 0 18 18 0 0 1 36 0zm-8.5 8.26l-1.44 1.45c-.25.25-1 .41-1.03.41a17.01 17.01 0 0 1-17.15-17.2s.16-.72.42-.98l1.44-1.44a2.4 2.4 0 0 1 2.25-.53l.3.1c.7.24 1.45 1.02 1.65 1.74l.72 2.66a2.6 2.6 0 0 1-.6 2.28l-.96.96c.95 3.5 3.7 6.24 7.2 7.19l.95-.96a2.6 2.6 0 0 1 2.28-.6l2.66.73c.72.2 1.5.93 1.74 1.64l.1.3c.24.72 0 1.73-.52 2.25z"/></defs><g><g clip-path="url(#clip-D0AE9198-20C1-4A14-A5B3-1FAEEDE4D3BE)" transform="translate(-948 -46)"><use fill="#f75500" xlink:href="#29gca"/></g></g></svg>