<svg xmlns="http://www.w3.org/2000/svg" xmlns:xlink="http://www.w3.org/1999/xlink" width="58" height="58" viewBox="0 0 58 58"><defs><path id="i87na" d="M154.5 1472.67a1.83 1.83 0 1 1 0 3.66 1.83 1.83 0 0 1 0-3.66zm5.5 1.83a5.5 5.5 0 1 0-11.01.01 5.5 5.5 0 0 0 11.01-.01z"/><path id="i87nb" d="M165.5 1495.33a1.83 1.83 0 1 1 0-3.66 1.83 1.83 0 0 1 0 3.66zm-5.5-1.83a5.5 5.5 0 1 0 11.01-.01 5.5 5.5 0 0 0-11.01.01z"/><path id="i87nc" d="M149.76 1497.66a1.84 1.84 0 0 0 2.56-.42l18.34-25.38a1.8 1.8 0 0 0-.43-2.52 1.85 1.85 0 0 0-2.55.42l-18.34 25.38a1.8 1.8 0 0 0 .42 2.52"/><path id="i87nd" d="M137.28 1483.4l-2.31-6.04 5.03-4.07c.35-.28.58-.68.65-1.12l1.02-6.4 6.39-1.01c.44-.07.84-.3 1.12-.65l4.07-5.03 6.04 2.32c.42.16.88.16 1.3 0l6.04-2.32 4.07 5.03c.29.35.68.58 1.12.65l6.4 1.02 1.01 6.4c.07.43.3.83.65 1.11l5.03 4.08-2.31 6.04c-.16.42-.16.88 0 1.3l2.31 6.04-5.03 4.07a1.8 1.8 0 0 0-.65 1.12l-1.01 6.4-6.4 1.01c-.44.07-.83.3-1.12.65l-4.06 5.03-6.05-2.32a1.8 1.8 0 0 0-1.3 0l-6.04 2.32-4.07-5.03a1.8 1.8 0 0 0-1.12-.65l-6.4-1.02-1.01-6.39a1.8 1.8 0 0 0-.65-1.12l-5.03-4.07 2.32-6.04a1.8 1.8 0 0 0 0-1.3zm-.1 13.8l1.11 7c.13.78.73 1.38 1.5 1.5l7.01 1.12 4.47 5.51c.5.61 1.32.84 2.05.55l6.62-2.54 6.63 2.54a1.83 1.83 0 0 0 2.05-.55l4.47-5.5 7-1.12a1.81 1.81 0 0 0 1.5-1.5l1.12-7.01 5.51-4.47c.6-.49.83-1.32.55-2.05l-2.54-6.62 2.54-6.63c.28-.73.06-1.56-.55-2.05l-5.51-4.47-1.12-7a1.81 1.81 0 0 0-1.5-1.5l-7-1.12-4.47-5.51c-.5-.6-1.32-.83-2.06-.55l-6.62 2.54-6.62-2.54a1.8 1.8 0 0 0-2.05.55l-4.47 5.51-7 1.12c-.78.12-1.38.73-1.5 1.5l-1.12 7-5.51 4.47c-.6.5-.83 1.32-.55 2.05l2.54 6.63-2.54 6.62c-.28.73-.06 1.56.55 2.05z"/></defs><g><g transform="translate(-131 -1455)"><use fill="#fff" xlink:href="#i87na"/></g><g transform="translate(-131 -1455)"><use fill="#fff" xlink:href="#i87nb"/></g><g transform="translate(-131 -1455)"><use fill="#fff" xlink:href="#i87nc"/></g><g transform="translate(-131 -1455)"><use fill="#fff" xlink:href="#i87nd"/></g></g></svg>